<svg xmlns="http://www.w3.org/2000/svg" xmlns:xlink="http://www.w3.org/1999/xlink" viewBox="0,0,256,256" width="50px" height="50px" fill-rule="nonzero"><g transform="translate(25.6,25.6) scale(0.8,0.8)"><g fill="#b9b9b9" fill-rule="nonzero" stroke="none" stroke-width="1" stroke-linecap="butt" stroke-linejoin="miter" stroke-miterlimit="10" stroke-dasharray="" stroke-dashoffset="0" font-family="none" font-weight="none" font-size="none" text-anchor="none" style="mix-blend-mode: normal"><path d="M128,288c-88.36556,0 -160,-71.63444 -160,-160v0c0,-88.36556 71.63444,-160 160,-160v0c88.36556,0 160,71.63444 160,160v0c0,88.36556 -71.63444,160 -160,160z" id="shape"></path></g><g fill="#1d1d1d" fill-rule="nonzero" stroke="none" stroke-width="1" stroke-linecap="butt" stroke-linejoin="miter" stroke-miterlimit="10" stroke-dasharray="" stroke-dashoffset="0" font-family="none" font-weight="none" font-size="none" text-anchor="none" style="mix-blend-mode: normal"><g transform="scale(5.12,5.12)"><path d="M18.13672,3c-0.26172,0.00391 -0.50781,0.10547 -0.69531,0.28906l-6.02344,5.97656c-0.39062,0.39063 -0.39453,1.02344 -0.00781,1.41406l14.23438,14.35156l-14.34766,14.23438c-0.39453,0.39063 -0.39844,1.02344 -0.00781,1.41406l5.97656,6.02344c0.39063,0.39453 1.02344,0.39844 1.41406,0.00781l21.08594,-20.91406c0.39063,-0.39062 0.39453,-1.02344 0.00391,-1.41797l-20.91016,-21.08203c-0.19141,-0.19531 -0.45312,-0.30078 -0.72266,-0.29687z"></path></g></g></g></svg>